<?xml version="1.0" encoding="utf-8"?>
<!-- Generator: Adobe Illustrator 24.1.2, SVG Export Plug-In . SVG Version: 6.00 Build 0)  -->
<svg version="1.1" id="Layer_1" xmlns="http://www.w3.org/2000/svg" xmlns:xlink="http://www.w3.org/1999/xlink" x="0px" y="0px"
	 viewBox="0 0 256 256" style="enable-background:new 0 0 256 256;" xml:space="preserve">
<style type="text/css">
	.st0{fill:#1A1918;}
	.st1{fill:#FFFFFF;}
</style>
<g>
	<path class="st0" d="M256,128c0,70.7-57.3,128-128,128C57.3,256,0,198.7,0,128C0,57.3,57.3,0,128,0C198.7,0,256,57.3,256,128"/>
	<path class="st1" d="M130.2,78.2l33.1,81.8l-50-39.4L130.2,78.2z M189,178.8L138,56.2c-1.5-3.5-4.4-5.4-7.9-5.4
		c-3.5,0-6.7,1.9-8.1,5.4L66.1,190.7h19.1l22.1-55.5l66.1,53.4c2.7,2.1,4.6,3.1,7.1,3.1c5,0,9.4-3.7,9.4-9.1
		C189.9,181.7,189.6,180.3,189,178.8L189,178.8z"/>
</g>
</svg>
