<?xml version="1.0" encoding="utf-8"?>
<!-- Generator: Adobe Illustrator 24.1.2, SVG Export Plug-In . SVG Version: 6.00 Build 0)  -->
<svg version="1.1" id="Layer_1" xmlns="http://www.w3.org/2000/svg" xmlns:xlink="http://www.w3.org/1999/xlink" x="0px" y="0px"
	 viewBox="0 0 256 256" style="enable-background:new 0 0 256 256;" xml:space="preserve">
<style type="text/css">
	.st0{fill:#00ACD2;}
	.st1{fill:#C8E9EB;}
	.st2{fill:#662D91;}
</style>
<g>
	<path class="st0" d="M201.6,25.3c-30.7-26.5-98.7-39.7-149.7-1.6c-47.8,32-50.2,90.6-50.2,90.6c8.1,32,40.4,62.8,102.7,47.8
		C97.1,119.1,111.5,10.1,201.6,25.3z"/>
	<path class="st1" d="M169.5,129.5c-33.6,27.9-136,70.5-167.8-15.1c-7.6,39.9,13.5,106.2,72,131.3c51.6,25.4,105.5-4,105.5-4
		C202.8,218.6,213.6,175.9,169.5,129.5"/>
	<path class="st2" d="M108.8,90.4c41,15.2,128.6,80.9,70.3,151.3c38.3-13.3,83.3-64.4,75.8-127.6c-3.8-57.4-53.4-88.7-53.4-88.7
		C169.7,16.4,127,29,108.8,90.4"/>
</g>
</svg>
