<?xml version="1.0" encoding="utf-8"?>
<!-- Generator: Adobe Illustrator 24.1.2, SVG Export Plug-In . SVG Version: 6.00 Build 0)  -->
<svg version="1.1" id="Layer_1" xmlns="http://www.w3.org/2000/svg" xmlns:xlink="http://www.w3.org/1999/xlink" x="0px" y="0px"
	 viewBox="0 0 256 256" style="enable-background:new 0 0 256 256;" xml:space="preserve">
<style type="text/css">
	.st0{fill:#FF8800;}
</style>
<path class="st0" d="M139.7,195.9c2.6,2.7,4.4,6,5.1,9.6l39.6-21.9c-2.7-2.6-4.5-6-5.2-9.5L139.7,195.9z"/>
<path class="st0" d="M116.3,60.1c-2.6-2.7-4.4-6-5.1-9.6L71.6,72.4c2.7,2.6,4.5,6,5.2,9.5L116.3,60.1z"/>
<path class="st0" d="M193.5,106.7l-0.9,45.1c3.5-1,7.3-0.9,10.8,0.2l0.9-45.3C200.9,107.8,197.1,107.8,193.5,106.7z"/>
<path class="st0" d="M62.5,149.3l0.9-45.1c-3.5,1-7.3,0.9-10.8-0.2l-0.9,45.3C55.1,148.3,58.9,148.2,62.5,149.3z"/>
<circle class="st0" cx="129.8" cy="46.8" r="13.6"/>
<circle class="st0" cx="199" cy="88.5" r="13.6"/>
<circle class="st0" cx="57" cy="167.5" r="13.6"/>
<circle class="st0" cx="126.2" cy="209.2" r="13.6"/>
<circle class="st0" cx="58.3" cy="86" r="13.6"/>
<circle class="st0" cx="197.7" cy="170.1" r="13.6"/>
<path class="st0" d="M239.2,63.4L239.2,63.4l-0.4-0.2c0,0,0,0,0,0L130.5,0.7c0,0-0.1-0.1-0.1-0.1c0,0,0,0,0,0
	c-1.5-0.8-3.3-0.8-4.8,0c0,0,0,0-0.1,0L16.8,63.4c-1.5,0.9-2.5,2.5-2.5,4.3v120.5c0,1.8,1,3.4,2.5,4.3l0.2,0.1c0,0,0,0,0,0
	l108.4,62.6c0,0,0,0,0.1,0c0.7,0.4,1.4,0.6,2.2,0.6c0.1,0,0.2,0,0.2,0c0.9,0,1.7-0.2,2.5-0.7l107.6-62.1c0,0,0,0,0,0l1.1-0.6
	c1.5-0.9,2.5-2.5,2.5-4.3V67.8C241.7,66,240.7,64.3,239.2,63.4z M231.7,181l-0.8,5.6l-5.5,2.4L133,242.3l-5,2.4l-5-2.4l-93.3-53.9
	l-5.4-3.3V180V76.8v-5.6l4.6-3.2l94-54.3l5-2.4l5,2.4l93.2,53.8l4.7,3.2l0.8,5.2V181z"/>
<path class="st0" d="M178.7,82.6l2,1.1l0,0c0.4-1.7,1.1-3.4,2.1-5c1-1.6,2.2-3,3.5-4.2l-38-23c-0.4,1.7-1.1,3.4-2.1,5.1
	c-0.9,1.5-2,2.8-3.2,4l1.4,1.2L178.7,82.6z"/>
<path class="st0" d="M111.4,194l-34.4-20.7l-1.7-0.9l0,0c-0.4,1.7-1.1,3.4-2.1,4.9c-1,1.6-2.2,3-3.5,4.2l38,23
	c0.4-1.7,1.1-3.4,2.1-5.1c0.9-1.4,1.9-2.7,3-3.8l0,0L111.4,194z"/>
<path class="st0" d="M184.6,100.8c-1.8-2.1-3.1-4.6-3.8-7.2l-42.4,23.8c-0.9-1-1.9-1.8-3.1-2.6c-5.7-3.4-12.8-2.2-17.1,2.5l-42-25.3
	l-0.1,0.6c-0.4,1.1-0.9,2.1-1.5,3.1c-0.6,1-1.8,2.5-2.6,3.4l42.8,25.9c-0.5,5,1.8,10.2,6.5,13c0.8,0.5,1.6,0.8,2.4,1.1l-0.9,51.4
	c2.7-0.5,5.4-0.4,8.1,0.3l1-51.4c3.2-0.9,6.1-3,8-6c1.6-2.6,2.2-5.5,1.9-8.4L184.6,100.8z"/>
</svg>
