<?xml version="1.0" encoding="utf-8"?>
<!-- Generator: Adobe Illustrator 24.1.2, SVG Export Plug-In . SVG Version: 6.00 Build 0)  -->
<svg version="1.1" id="Layer_1" xmlns="http://www.w3.org/2000/svg" xmlns:xlink="http://www.w3.org/1999/xlink" x="0px" y="0px"
	 viewBox="0 0 256 256" style="enable-background:new 0 0 256 256;" xml:space="preserve">
<style type="text/css">
	.st0{fill:#4386FA;}
	.st1{opacity:0.1;enable-background:new    ;}
	.st2{fill:#FFFFFF;}
</style>
<g id="g942" transform="matrix(1.0761991,0,0,1.0761991,-4.315335,-2.2859734)">
	<g id="g877" transform="matrix(0.46366782,0,0,0.46366782,-37.02839,-17.716055)">
		<path id="path20" class="st0" d="M204.6,509.3L93,316c-6-10.3-6-23.1,0-33.4L204.6,89.3c6-10.3,17-16.7,28.9-16.7h223.3
			c11.9,0.1,22.8,6.4,28.7,16.7l111.6,193.3c6,10.3,6,23.1,0,33.4L485.5,509.3c-6,10.3-17,16.7-28.9,16.7H233.4
			C221.5,525.9,210.5,519.6,204.6,509.3z"/>
		<path id="path22" class="st1" d="M414.7,237.1c0,0,31,74.4-11.3,116.6c-42.3,42.2-119.3,15.2-119.3,15.2s114.5,116,156.7,157.1
			h15.9c11.9,0,22.9-6.4,28.9-16.7l73.9-127.9L414.7,237.1z"/>
		<path id="path24" class="st2" d="M451.4,389.3L417.1,355c-0.4-0.4-0.8-0.7-1.3-1c31.5-40.7,24-99.3-16.8-130.8
			c-40.7-31.5-99.3-24-130.8,16.8c-31.5,40.7-24,99.3,16.8,130.8c33.8,26.1,81,25.9,114.5-0.4c0.2,0.4,0.5,0.8,0.9,1.2l34.3,34.3
			c2.1,2.1,5.5,2.1,7.6,0c0,0,0,0,0,0l0,0l9-9C453.5,394.8,453.5,391.4,451.4,389.3C451.4,389.3,451.4,389.3,451.4,389.3z
			 M342.1,367.1c-38.7,0-70.1-31.4-70.1-70.1s31.4-70.1,70.1-70.1c38.7,0,70.1,31.4,70.1,70.1l0,0
			C412.3,335.7,380.9,367.1,342.1,367.1z"/>
		<path id="path26" class="st2" d="M297.3,293.3v29c4.5,7.9,10.9,14.4,18.7,19v-48.2L297.3,293.3z"/>
		<path id="path28" class="st2" d="M297.3,293.3v29c4.5,7.9,10.9,14.4,18.7,19v-48.2L297.3,293.3z"/>
		<path id="path30" class="st2" d="M332.4,269.2v78.3c6.2,1.1,12.5,1.1,18.7,0v-78.3H332.4z"/>
		<path id="path32" class="st2" d="M332.4,269.2v78.3c6.2,1.1,12.5,1.1,18.7,0v-78.3H332.4z"/>
		<path id="path34" class="st2" d="M386.6,322.2V305h-18.7v36.2C375.7,336.6,382.1,330.1,386.6,322.2z"/>
		<path id="path36" class="st2" d="M386.6,322.2V305h-18.7v36.2C375.7,336.6,382.1,330.1,386.6,322.2z"/>
	</g>
</g>
</svg>
