<?xml version="1.0" encoding="utf-8"?>
<!-- Generator: Adobe Illustrator 24.1.2, SVG Export Plug-In . SVG Version: 6.00 Build 0)  -->
<svg version="1.1" id="Layer_1" xmlns="http://www.w3.org/2000/svg" xmlns:xlink="http://www.w3.org/1999/xlink" x="0px" y="0px"
	 viewBox="0 0 256 256" style="enable-background:new 0 0 256 256;" xml:space="preserve">
<style type="text/css">
	.st0{fill:#3367D6;}
	.st1{fill:url(#SVGID_1_);}
	.st2{opacity:0.2;fill:#FFFFFF;enable-background:new    ;}
	.st3{fill:#64B5F6;}
	.st4{fill:#263238;}
	.st5{fill:url(#SVGID_2_);}
</style>
<g>
	<path class="st0" d="M256,20.5c0-11.3-9.3-20.5-20.5-20.5H20.5C9.3-0.1,0,9.2,0,20.5v215.1c0,11.3,9.3,20.5,20.5,20.5h105.1
		c72.3,0,130.4-55.1,130.4-129.5C256,105.3,256,20.5,256,20.5z"/>
	
		<linearGradient id="SVGID_1_" gradientUnits="userSpaceOnUse" x1="-168.0117" y1="547.4127" x2="-167.2011" y2="546.5967" gradientTransform="matrix(256 0 0 -254.3158 43095 139300.0156)">
		<stop  offset="0" style="stop-color:#263238;stop-opacity:0.2"/>
		<stop  offset="0.4313" style="stop-color:#263238;stop-opacity:0"/>
	</linearGradient>
	<path class="st1" d="M256,126.4c0-7.2,0-21.9,0-38.1L168.8,1.6L0,168.3l87.7,87.6h37.9C197.9,255.9,256,200.8,256,126.4z"/>
	<path class="st2" d="M79.3,1.6h156.1c11.3,0,20.5,9.3,20.5,20.5v-1.7c0-11.3-9.3-20.5-20.5-20.5H79.3V1.6z"/>
	<path d="M20.5-0.1C9.3-0.1,0,9.2,0,20.5v147.9c0,0,50.7,0,84,0c47.8,0,84.4-38.7,84.4-84.5V-0.1H20.5z"/>
	<path class="st3" d="M20.5-0.1C9.3-0.1,0,9.2,0,20.5v147.9c0,0,50.7,0,84,0c47.8,0,84.4-38.7,84.4-84.5V-0.1H20.5z"/>
	<path class="st2" d="M168.4,1.6H20.5C9.3,1.6,0,10.9,0,22.1v-1.7C0,9.2,9.3-0.1,20.5-0.1h147.9V1.6z"/>
	<path class="st4" d="M125.6,254.2H20.5C9.3,254.2,0,245,0,233.7v1.7c0,11.3,9.3,20.5,20.5,20.5h105.1
		c72.3,0,130.4-55.1,130.4-129.5c0-0.5,0-1,0-1.7C256,199.2,197.9,254.2,125.6,254.2z"/>
	
		<linearGradient id="SVGID_2_" gradientUnits="userSpaceOnUse" x1="-168.3398" y1="547.2463" x2="-167.3398" y2="547.2463" gradientTransform="matrix(256 0 0 -256.1684 43095 140315.2344)">
		<stop  offset="0" style="stop-color:#FFFFFF;stop-opacity:0.1"/>
		<stop  offset="1" style="stop-color:#FFFFFF;stop-opacity:0"/>
	</linearGradient>
	<path class="st5" d="M256,20.5c0-11.3-9.3-20.5-20.5-20.5H20.5C9.3-0.1,0,9.2,0,20.5v215.1c0,11.3,9.3,20.5,20.5,20.5h105.1
		c72.3,0,130.4-55.1,130.4-129.5C256,105.3,256,20.5,256,20.5z"/>
</g>
</svg>
