<?xml version="1.0" encoding="utf-8"?>
<!-- Generator: Adobe Illustrator 24.1.2, SVG Export Plug-In . SVG Version: 6.00 Build 0)  -->
<svg version="1.1" id="Layer_1" xmlns="http://www.w3.org/2000/svg" xmlns:xlink="http://www.w3.org/1999/xlink" x="0px" y="0px"
	 viewBox="0 0 256 256" style="enable-background:new 0 0 256 256;" xml:space="preserve">
<style type="text/css">
	.st0{fill:#4C4C4C;}
	.st1{fill:#686868;}
	.st2{fill:#EEF7FF;}
	.st3{fill:#D3E6F4;}
	.st4{fill:#FFFFFF;stroke:#4C4C4C;stroke-width:3;stroke-miterlimit:10;}
	.st5{fill:#607D8B;}
	.st6{fill:#90A4AE;}
	.st7{fill:#455A64;}
	.st8{fill:#F44336;}
	.st9{fill:#FAFAFA;}
	.st10{fill:#7D8F97;}
</style>
<rect x="70" y="191.3" class="st0" width="86.4" height="27.2"/>
<path class="st1" d="M173.5,224.3H53c-3.8,0-6.8-3-6.8-6.8l0,0c0-3.8,3-6.8,6.8-6.8h120.5c3.8,0,6.8,3,6.8,6.8l0,0
	C180.3,221.3,177.3,224.3,173.5,224.3z"/>
<path class="st1" d="M207.6,200H14.9C6.7,200,0,193.4,0,185.1V46.5c0-8.2,6.7-14.9,14.9-14.9h192.8c8.2,0,14.9,6.7,14.9,14.9v138.6
	C222.5,193.4,215.8,200,207.6,200z"/>
<path class="st2" d="M17,186c-2.4,0-4.4-2-4.4-4.4V50c0-2.4,2-4.4,4.4-4.4h188.5c2.4,0,4.4,2,4.4,4.4v131.5c0,2.4-2,4.4-4.4,4.4
	L17,186L17,186z"/>
<rect x="23.7" y="57.8" class="st3" width="168.5" height="61.9"/>
<rect x="23.7" y="134.9" class="st3" width="168.5" height="13.4"/>
<rect x="23.7" y="159.5" class="st3" width="168.5" height="13.4"/>
<g>
	<path class="st0" d="M250.4,192.5c-1.4,0-2.9-0.6-4-1.6l-37.7-37.7c-2.2-2.2-2.2-5.7,0-7.9s5.7-2.2,7.9,0l37.7,37.7
		c2.2,2.2,2.2,5.7,0,7.9C253.3,192,251.8,192.5,250.4,192.5z"/>
	<path class="st4" d="M178.8,172.9c-31.7,0-57.5-25.8-57.5-57.5s25.8-57.5,57.5-57.5s57.5,25.8,57.5,57.5S210.5,172.9,178.8,172.9z"
		/>
	<path class="st1" d="M187.8,95.3l-1.2-0.2c-2.2-0.6-3.5-3-2.9-5.2c2.2-7.7,9.4-13.1,17.5-13.1c2.3,0,4.2,1.9,4.2,4.2
		s-1.9,4.2-4.2,4.2c-4.4,0-8.2,2.9-9.4,7.1C191.3,94.1,189.6,95.3,187.8,95.3z"/>
	<path class="st5" d="M169.8,95.3c-1.8,0-3.5-1.2-4-3c-1.2-4.2-5.1-7.1-9.4-7.1c-2.3,0-4.2-1.9-4.2-4.2s1.9-4.2,4.2-4.2
		c8.1,0,15.3,5.4,17.5,13.1c0.6,2.2-0.6,4.6-2.9,5.2L169.8,95.3z"/>
	<g>
		<path class="st6" d="M194.2,120.3c-1.9,0-3.6-1.3-4.1-3.2c-0.6-2.3,0.8-4.5,3.1-5.1l9.4-2.3l4.7-9.5c1-2.1,3.6-2.9,5.6-1.9
			c2.1,1,2.9,3.6,1.9,5.6l-5.6,11.2c-0.6,1.1-1.5,1.9-2.7,2.2l-11.2,2.8L194.2,120.3z"/>
		<path class="st6" d="M211.1,148.3c-1.5,0-3-0.8-3.8-2.3l-5-9.9l-9.9-4.8c-2.1-1-3-3.5-2-5.6c1-2.1,3.5-3,5.6-2l11.2,5.4
			c0.8,0.4,1.5,1.1,1.9,1.9l5.6,11.2c1,2.1,0.2,4.6-1.9,5.6C212.4,148.2,211.7,148.3,211.1,148.3L211.1,148.3z"/>
		<path class="st6" d="M163.4,120.3l-1-0.1l-11.2-2.8c-1.2-0.3-2.2-1.1-2.7-2.2l-5.6-11.2c-1-2.1-0.2-4.6,1.9-5.6
			c2.1-1,4.6-0.2,5.6,1.9l4.7,9.5l9.4,2.3c2.3,0.6,3.6,2.9,3.1,5.1C167,119,165.3,120.3,163.4,120.3L163.4,120.3z"/>
		<path class="st6" d="M146.5,148.3c-0.6,0-1.3-0.1-1.9-0.4c-2.1-1-2.9-3.6-1.9-5.6l5.6-11.2c0.4-0.8,1.1-1.5,1.9-1.9l11.2-5.4
			c2.1-1,4.6-0.1,5.6,2c1,2.1,0.1,4.6-2,5.6l-9.9,4.8l-5,9.9C149.6,147.5,148.1,148.3,146.5,148.3L146.5,148.3z"/>
	</g>
	<path class="st7" d="M190,102h-22.5c-2.3,0-4.2-1.9-4.2-4.2c0-8.5,6.9-15.4,15.4-15.4c8.5,0,15.4,6.9,15.4,15.4
		C194.2,100.1,192.4,102,190,102z"/>
	<path class="st8" d="M178.8,153.9c-10.8,0-19.6-8.8-19.6-19.6V102c0-2.3,1.9-4.2,4.2-4.2h30.9c2.3,0,4.2,1.9,4.2,4.2v32.3
		C198.5,145.1,189.6,153.9,178.8,153.9z"/>
	<path class="st9" d="M178.8,141.6c2.3,0,4.2-1.9,4.2-4.2V97.8h-8.4v39.6C174.6,139.8,176.5,141.6,178.8,141.6z"/>
	<path class="st1" d="M156.3,76.8c-2.3,0-4.2,1.9-4.2,4.2s1.9,4.2,4.2,4.2c3.8,0,7.2,2.2,8.8,5.4c1.4-2.6,3.5-4.8,6-6.2
		C167.8,79.7,162.3,76.8,156.3,76.8z"/>
	<path class="st10" d="M146.5,97.8c-0.6,0-1.3,0.1-1.9,0.4c-2.1,1-2.9,3.6-1.9,5.6l5.6,11.2c0.6,1.1,1.5,1.9,2.7,2.2l8,2v-8.7
		l-4.1-1l-4.7-9.5C149.6,98.7,148.1,97.8,146.5,97.8L146.5,97.8z"/>
	<path class="st10" d="M159.2,124.8l-8.9,4.3c-0.8,0.4-1.5,1.1-1.9,1.9l-5.6,11.2c-1,2.1-0.2,4.6,1.9,5.6c0.6,0.3,1.3,0.4,1.9,0.4
		c1.5,0,3-0.8,3.8-2.3l5-9.9l3.9-1.9V124.8z"/>
</g>
</svg>
