<?xml version="1.0" encoding="utf-8"?>
<!-- Generator: Adobe Illustrator 24.1.2, SVG Export Plug-In . SVG Version: 6.00 Build 0)  -->
<svg version="1.1" id="Layer_1" xmlns="http://www.w3.org/2000/svg" xmlns:xlink="http://www.w3.org/1999/xlink" x="0px" y="0px"
	 viewBox="0 0 256 256" style="enable-background:new 0 0 256 256;" xml:space="preserve">
<style type="text/css">
	.st0{fill:#FB8C00;}
	.st1{fill:#616161;}
</style>
<g>
	<path class="st0" d="M165.4,176.1l38.9-96.2h-25.8l-26.6,62.2L133,79.9h-19.8l-20.3,62.2l-14.3-28.3l-13,39.8l13.2,22.5h25.4
		l18.3-55.7l17.5,55.7L165.4,176.1z"/>
	<path class="st1" d="M24.4,143.1h15.8c4.8,0,9.1-0.5,12.8-1.6l4.1-12.6l11.4-35.3c-0.9-1.4-1.9-2.7-3-3.9
		c-5.9-6.5-14.5-9.8-25.8-9.8H0v96.2h24.4V143.1z M45.3,102c2.3,2.3,3.4,5.4,3.4,9.3c0,3.9-1,7-3,9.3c-2.2,2.5-6.3,3.8-12.2,3.8
		h-9.1V98.6h9.2C39.1,98.6,43,99.7,45.3,102L45.3,102z M188.4,158.9l7.4-18.7h21.3L207,111.9l12.7-32l36.3,96.2h-26.8l-6.2-17.2
		L188.4,158.9z"/>
</g>
</svg>
