<?xml version="1.0" encoding="utf-8"?>
<!-- Generator: Adobe Illustrator 24.1.2, SVG Export Plug-In . SVG Version: 6.00 Build 0)  -->
<svg version="1.1" id="Layer_1" xmlns="http://www.w3.org/2000/svg" xmlns:xlink="http://www.w3.org/1999/xlink" x="0px" y="0px"
	 viewBox="0 0 256 256" style="enable-background:new 0 0 256 256;" xml:space="preserve">
<style type="text/css">
	.st0{fill:#205B98;}
	.st1{fill:#5294CF;}
	.st2{fill:#2D72B8;}
</style>
<g id="REDSHIFT-2">
	<path id="polygon25" class="st0" d="M225.5,36.2L128,59.8v135.8l97.5,23.6V36.2z"/>
	<path id="polygon27" class="st1" d="M244.2,209.9l-18.8,9.4v-183l18.8,9.4V209.9z"/>
	<path id="polygon29" class="st1" d="M30.6,36.2L128,59.8v135.8l-97.4,23.6L30.6,36.2z"/>
	<path id="polygon31" class="st0" d="M11.8,209.9l18.7,9.4v-183l-18.7,9.4V209.9z"/>
	<path id="polygon33" class="st1" d="M190,18.5L152.9,0l-11.6,121.8L152.9,256l37-18.5V18.5z"/>
	<path id="polygon35" class="st0" d="M66,18.5l37-18.5l11.6,121.3L103.1,256l-37-18.5L66,18.5z"/>
	<path id="rect37" class="st2" d="M103.1,0H153v256h-49.9V0z"/>
</g>
</svg>
